<svg width="16" height="19" viewBox="0 0 16 19" fill="none" xmlns="http://www.w3.org/2000/svg">
<path fill-rule="evenodd" clip-rule="evenodd" d="M7.8899 1.4C7.32963 1.4 6.79231 1.62257 6.39614 2.01874C5.99997 2.41491 5.7774 2.95223 5.7774 3.5125V4.6875H10.0024V3.5125C10.0024 2.95223 9.77983 2.41491 9.38366 2.01874C8.98749 1.62257 8.45017 1.4 7.8899 1.4ZM11.4024 4.6875V3.5125C11.4024 2.58093 11.0323 1.68751 10.3736 1.02879C9.71489 0.370066 8.82147 0 7.8899 0C6.95833 0 6.06491 0.370066 5.40619 1.02879C4.74747 1.68751 4.3774 2.58093 4.3774 3.5125V4.6875H2.5753M4.3774 6.0875H2.57521C2.4058 6.08748 2.2383 6.1241 2.08436 6.19484C1.93042 6.26558 1.79359 6.36877 1.68327 6.49734C1.57295 6.62591 1.49173 6.77682 1.44519 6.93972C1.39866 7.10258 1.38789 7.27358 1.41362 7.44099C1.41362 7.44095 1.41363 7.44103 1.41362 7.44099L2.59019 15.0835C2.66689 15.5822 2.9196 16.0372 3.30256 16.3657C3.68551 16.6943 4.17343 16.875 4.67802 16.875C4.67801 16.875 4.67804 16.875 4.67802 16.875H11.1018C11.6065 16.8751 12.0948 16.6946 12.4779 16.366C12.861 16.0374 13.1138 15.5825 13.1905 15.0836L14.3671 7.4411C14.3671 7.44114 14.3671 7.44106 14.3671 7.4411C14.3928 7.27369 14.3821 7.10258 14.3355 6.93972C14.289 6.77682 14.2078 6.62591 14.0975 6.49734C13.9871 6.36877 13.8503 6.26558 13.6964 6.19484C13.5424 6.1241 13.375 6.08748 13.2056 6.0875H11.4024V8.2C11.4024 8.5866 11.089 8.9 10.7024 8.9C10.3158 8.9 10.0024 8.5866 10.0024 8.2V6.0875H5.7774V8.2C5.7774 8.5866 5.464 8.9 5.0774 8.9C4.6908 8.9 4.3774 8.5866 4.3774 8.2V6.0875ZM11.4024 4.6875H13.2054C13.2054 4.6875 13.2055 4.6875 13.2054 4.6875C13.5767 4.68747 13.9436 4.76771 14.281 4.92273C14.6183 5.07776 14.9182 5.3039 15.1599 5.58566C15.4017 5.86743 15.5797 6.19814 15.6817 6.55513C15.7837 6.91212 15.8073 7.28694 15.7508 7.6539L14.5743 15.2964C14.5743 15.2964 14.5743 15.2964 14.5743 15.2964C14.4467 16.1258 14.0263 16.8823 13.3894 17.4286C12.7524 17.975 11.9409 18.2752 11.1018 18.275C11.1017 18.275 11.1018 18.275 11.1018 18.275H4.67802C3.839 18.275 3.02768 17.9746 2.39092 17.4282C1.75419 16.8819 1.33404 16.1257 1.20649 15.2965C1.20648 15.2965 1.20649 15.2965 1.20649 15.2965L0.0299252 7.65401C-0.0265083 7.28705 -0.00293767 6.91212 0.0990537 6.55513C0.201045 6.19814 0.379028 5.86743 0.620801 5.58566C0.862573 5.3039 1.16242 5.07775 1.49977 4.92273C1.83711 4.76771 2.20405 4.68747 2.5753 4.6875" fill="black"/>
</svg>
