<svg width="19" height="17" viewBox="0 0 19 17" fill="none" xmlns="http://www.w3.org/2000/svg">
<path fill-rule="evenodd" clip-rule="evenodd" d="M5.81046 1.4225C5.26309 1.36411 4.70956 1.41968 4.18472 1.58573C3.65988 1.75177 3.1751 2.02469 2.76092 2.38729C2.34674 2.7499 2.01212 3.19433 1.77814 3.69261C1.54416 4.19089 1.41588 4.73221 1.40138 5.2825C1.38689 5.83279 1.48649 6.38012 1.69391 6.89003C1.90134 7.39993 2.2121 7.86136 2.60661 8.24527L2.61103 8.24957L2.61102 8.24959L9.14968 14.7255L15.6884 8.24959C15.7056 8.23253 15.7235 8.21655 15.7419 8.20164C16.109 7.8277 16.3989 7.38489 16.5949 6.89842C16.7999 6.38941 16.8977 5.84355 16.8821 5.29501C16.8665 4.74647 16.7379 4.20706 16.5042 3.71053C16.2705 3.214 15.9369 2.77104 15.5242 2.40938C15.1115 2.04773 14.6285 1.77515 14.1056 1.60872C13.5827 1.44228 13.0311 1.38557 12.4852 1.44214C11.9394 1.49871 11.4111 1.66733 10.9334 1.93746C10.4557 2.20758 10.039 2.5734 9.70917 3.012C9.57652 3.18841 9.36845 3.29193 9.14773 3.29132C8.92702 3.2907 8.71952 3.18603 8.58786 3.00888C8.25949 2.56707 7.8432 2.19803 7.3652 1.92501C6.88719 1.65198 6.35784 1.48089 5.81046 1.4225ZM16.6173 9.30001L9.64226 16.2081C9.36945 16.4782 8.92991 16.4782 8.6571 16.2081L1.62794 9.24637C1.09601 8.72812 0.676953 8.10549 0.397106 7.41756C0.116854 6.72863 -0.0177162 5.98913 0.00186825 5.24564C0.0214527 4.50214 0.194768 3.77076 0.510901 3.09754C0.827033 2.42432 1.27913 1.82384 1.83874 1.33393C2.39834 0.844019 3.05331 0.475282 3.76242 0.250938C4.47153 0.0265936 5.21941 -0.0484971 5.95897 0.0303947C6.69852 0.109287 7.41373 0.340452 8.05956 0.709333C8.45852 0.937207 8.82565 1.21458 9.15263 1.53406C9.47972 1.218 9.84636 0.943837 10.2443 0.718817C10.8897 0.353851 11.6034 0.126025 12.3409 0.0495986C13.0784 -0.0268279 13.8237 0.04979 14.5302 0.274658C15.2367 0.499525 15.8892 0.867801 16.4468 1.35644C17.0045 1.84507 17.4553 2.44355 17.771 3.11441C18.0867 3.78527 18.2605 4.51407 18.2816 5.2552C18.3026 5.99633 18.1705 6.73384 17.8935 7.42156C17.6164 8.10929 17.2004 8.73242 16.6714 9.25197C16.654 9.26908 16.6359 9.28509 16.6173 9.30001Z" fill="black"/>
</svg>
