<svg width="13" height="19" viewBox="0 0 13 19" fill="none" xmlns="http://www.w3.org/2000/svg">
<path d="M8.2002 11.25C9.38034 11.2501 10.5122 11.7192 11.3467 12.5537C12.1811 13.3882 12.6504 14.5201 12.6504 15.7002V17.5752C12.6503 17.9616 12.3366 18.2753 11.9502 18.2754C11.5637 18.2754 11.2501 17.9617 11.25 17.5752V15.7002C11.25 14.8913 10.9284 14.115 10.3564 13.543C9.78453 12.9712 9.0089 12.6504 8.2002 12.6504H4.4502C3.64128 12.6504 2.86495 12.971 2.29297 13.543C1.72098 14.115 1.40039 14.8913 1.40039 15.7002V17.5752C1.40029 17.9616 1.08664 18.2753 0.700195 18.2754C0.313661 18.2754 0.000105636 17.9617 0 17.5752V15.7002C0 14.52 0.469174 13.3882 1.30371 12.5537C2.13825 11.7192 3.26998 11.25 4.4502 11.25H8.2002ZM6.3252 0C7.50534 5.17725e-05 8.63719 0.46922 9.47168 1.30371C10.3061 2.13823 10.7754 3.27007 10.7754 4.4502C10.7753 5.63034 10.3062 6.76219 9.47168 7.59668C8.63719 8.43117 7.50534 8.90034 6.3252 8.90039C5.14507 8.90039 4.01323 8.43109 3.17871 7.59668C2.34422 6.76219 1.87505 5.63034 1.875 4.4502C1.875 3.26998 2.34417 2.13825 3.17871 1.30371C4.01325 0.469174 5.14498 0 6.3252 0ZM6.3252 1.40039C5.51628 1.40039 4.73995 1.72098 4.16797 2.29297C3.59598 2.86495 3.27539 3.64128 3.27539 4.4502C3.27544 5.2589 3.59621 6.03453 4.16797 6.60645C4.73995 7.17843 5.51628 7.5 6.3252 7.5C7.13404 7.49995 7.90951 7.17838 8.48145 6.60645C9.05338 6.03451 9.37495 5.25904 9.375 4.4502C9.375 3.64128 9.05343 2.86495 8.48145 2.29297C7.90953 1.72121 7.1339 1.40044 6.3252 1.40039Z" fill="black"/>
</svg>
