<svg width="19" height="19" viewBox="0 0 19 19" fill="none" xmlns="http://www.w3.org/2000/svg">
<path d="M7.2627 0C8.21635 2.56697e-05 9.16092 0.187784 10.042 0.552734C10.9229 0.917655 11.7232 1.45275 12.3975 2.12695C13.0718 2.80134 13.6077 3.60227 13.9727 4.4834C14.3376 5.36444 14.5254 6.30907 14.5254 7.2627C14.5254 8.21635 14.3376 9.16092 13.9727 10.042C13.6973 10.7067 13.3238 11.3245 12.8682 11.8779L18.0703 17.0801C18.3435 17.3535 18.3436 17.797 18.0703 18.0703C17.797 18.3436 17.3535 18.3435 17.0801 18.0703L11.8779 12.8682C11.3245 13.3238 10.7067 13.6973 10.042 13.9727C9.16092 14.3376 8.21635 14.5254 7.2627 14.5254C6.30907 14.5254 5.36444 14.3376 4.4834 13.9727C3.60227 13.6077 2.80134 13.0718 2.12695 12.3975C1.45275 11.7232 0.917654 10.9229 0.552734 10.042C0.187785 9.16092 2.56697e-05 8.21635 0 7.2627C0 6.30902 0.1878 5.36448 0.552734 4.4834C0.917709 3.60227 1.45257 2.80134 2.12695 2.12695C2.80134 1.45257 3.60227 0.917709 4.4834 0.552734C5.36448 0.1878 6.30902 0 7.2627 0ZM7.2627 1.40039C6.49282 1.40039 5.72983 1.55206 5.01855 1.84668C4.3075 2.14129 3.66143 2.57294 3.11719 3.11719C2.57294 3.66143 2.14129 4.3075 1.84668 5.01855C1.55206 5.72983 1.40039 6.49282 1.40039 7.2627C1.40042 8.0325 1.55209 8.79465 1.84668 9.50586C2.1413 10.2171 2.57282 10.8638 3.11719 11.4082C3.66143 11.9524 4.30753 12.3841 5.01855 12.6787C5.72983 12.9733 6.49282 13.125 7.2627 13.125C8.03247 13.125 8.79467 12.9733 9.50586 12.6787C10.2171 12.3841 10.8638 11.9526 11.4082 11.4082C11.9526 10.8638 12.3841 10.2171 12.6787 9.50586C12.9733 8.79467 13.125 8.03247 13.125 7.2627C13.125 6.49282 12.9733 5.72983 12.6787 5.01855C12.3841 4.30753 11.9524 3.66143 11.4082 3.11719C10.8638 2.57282 10.2171 2.1413 9.50586 1.84668C8.79465 1.55209 8.0325 1.40042 7.2627 1.40039Z" fill="black"/>
</svg>
